<svg width="97" height="97" viewBox="0 0 97 97" fill="none" xmlns="http://www.w3.org/2000/svg">
<g id="cookies-svgrepo-com 1" clip-path="url(#clip0_2_7)">
<g id="Cookie">
<path id="Vector" d="M90.8678 47.0526L86.2563 47.9748C84.7217 48.2817 83.1794 47.4836 82.5438 46.0534L77.6042 34.9389C77.1861 33.9979 76.3578 33.3023 75.359 33.0524L72.7856 32.4092C71.2965 32.0369 70.2521 30.6992 70.2521 29.1642V11.3299C70.2521 10.4965 69.9408 9.69298 69.3794 9.07688L63.1665 2.25922C57.565 0.485373 51.5267 -0.305973 45.249 0.107414C21.1212 1.69693 1.5755 21.3243 0.103259 45.4593C-1.61451 73.623 20.7178 97 48.5104 97C75.0193 97 96.547 75.7292 96.9896 49.3258L93.0198 47.3409C92.3544 47.0081 91.5972 46.9067 90.8678 47.0526Z" fill="#FFA1EA"/>
<g id="Group">
<path id="Vector_2" d="M63.562 81.9481C63.2676 81.9481 62.9776 81.9313 62.6845 81.926C60.8468 83.9874 58.1789 85.2929 55.2 85.2929C50.8122 85.2929 47.0921 82.472 45.7286 78.5488C39.727 76.1736 34.3135 72.6399 29.764 68.2166C29.0757 68.424 28.3609 68.5688 27.605 68.5688C23.4486 68.5688 20.0791 65.1993 20.0791 61.0429C20.0791 59.5913 20.5096 58.2479 21.2215 57.0983C21.1706 57.0072 21.1162 56.9187 21.0656 56.8272C15.8452 56.4733 11.7173 52.1377 11.7173 46.8275C11.7173 43.6979 13.1507 40.9044 15.3959 39.0641C15.1831 37.2205 15.062 35.3491 15.062 33.4481C15.062 23.9094 17.8269 15.0215 22.5828 7.52072C9.02058 16.1196 0.010376 31.2529 0.010376 48.5C0.010376 75.2858 21.7245 97 48.5104 97C65.7574 97 80.8906 87.9898 89.4897 74.4276C81.9888 79.1835 73.101 81.9481 63.562 81.9481Z" fill="#FF96F4"/>
<path id="Vector_3" d="M37.6398 40.1379C39.9489 40.1379 41.8208 38.266 41.8208 35.9569C41.8208 33.6478 39.9489 31.7758 37.6398 31.7758C35.3307 31.7758 33.4587 33.6478 33.4587 35.9569C33.4587 38.266 35.3307 40.1379 37.6398 40.1379Z" fill="#FF96F4"/>
<path id="Vector_4" d="M81.9588 67.7327C84.2679 67.7327 86.1398 65.8608 86.1398 63.5517C86.1398 61.2426 84.2679 59.3706 81.9588 59.3706C79.6496 59.3706 77.7777 61.2426 77.7777 63.5517C77.7777 65.8608 79.6496 67.7327 81.9588 67.7327Z" fill="#FF96F4"/>
<path id="Vector_5" d="M43.9112 67.7327C45.5275 67.7327 46.8378 66.4224 46.8378 64.806C46.8378 63.1897 45.5275 61.8794 43.9112 61.8794C42.2948 61.8794 40.9845 63.1897 40.9845 64.806C40.9845 66.4224 42.2948 67.7327 43.9112 67.7327Z" fill="#FF96F4"/>
<path id="Vector_6" d="M66.4889 40.974C68.1053 40.974 69.4156 39.6637 69.4156 38.0473C69.4156 36.431 68.1053 35.1206 66.4889 35.1206C64.8726 35.1206 63.5623 36.431 63.5623 38.0473C63.5623 39.6637 64.8726 40.974 66.4889 40.974Z" fill="#FF96F4"/>
<path id="Vector_7" d="M54.782 15.0517C56.3984 15.0517 57.7087 13.7414 57.7087 12.125C57.7087 10.5086 56.3984 9.19833 54.782 9.19833C53.1657 9.19833 51.8553 10.5086 51.8553 12.125C51.8553 13.7414 53.1657 15.0517 54.782 15.0517Z" fill="#FF96F4"/>
</g>
<g id="Group_2">
<path id="Vector_8" d="M46.0767 43.079L44.1434 46.3014C42.9877 48.2274 44.0213 50.7225 46.2002 51.2672L51.9551 52.7059C53.7473 53.1539 55.5634 52.0644 56.0113 50.2722L56.6696 47.6388C56.8028 47.106 56.8028 46.549 56.6696 46.0163L55.9736 43.2319C55.5407 41.4997 53.8235 40.413 52.0727 40.7631L48.289 41.5198C47.3648 41.7049 46.5617 42.271 46.0767 43.079Z" fill="#B750B9"/>
<path id="Vector_9" d="M55.73 63.7838L53.7136 67.1443C52.7112 68.8151 53.3432 70.9856 55.0858 71.8569L61.5049 75.0664C63.4187 76.0236 65.7267 74.9619 66.2458 72.886L66.907 70.2413L67.6797 67.1496C68.1608 65.2255 66.8713 63.3077 64.9077 63.0271L59.0708 62.1931C57.7389 62.0029 56.4222 62.6298 55.73 63.7838Z" fill="#B750B9"/>
<path id="Vector_10" d="M20.5392 43.8315L18.0784 47.933C17.2887 49.2491 17.4962 50.9337 18.5814 52.0191L22.4542 55.8921C23.8639 57.3018 26.1858 57.1732 27.4313 55.6164L30.7515 51.4661C31.4036 50.6511 31.6377 49.5782 31.3844 48.5654L30.6272 45.5364C30.3136 44.2822 29.3058 43.3213 28.0383 43.0676L24.0632 42.2727C22.6772 41.9953 21.2665 42.6194 20.5392 43.8315Z" fill="#B750B9"/>
<path id="Vector_11" d="M34.1566 16.6755L32.2591 19.8382C31.1582 21.6731 32.0395 24.0556 34.0695 24.7323L38.1873 26.1049C39.3892 26.5054 40.7142 26.1927 41.6101 25.2969L43.8265 23.0805C44.6573 22.2498 44.9913 21.0439 44.7063 19.9041L44.1266 17.5854C43.7543 16.0961 42.4164 15.0515 40.8815 15.0515H37.0246C35.85 15.0517 34.7612 15.6682 34.1566 16.6755Z" fill="#B750B9"/>
<path id="Vector_12" d="M74.5528 42.5265L72.6168 44.4626C71.3107 45.7687 71.3107 47.8865 72.6168 49.1928L73.5642 50.1403C74.5824 51.1584 76.1374 51.4108 77.4253 50.7668L82.9037 48.0277C84.3058 47.3265 85.0332 45.7457 84.6529 44.2248L84.4047 43.2323C83.9718 41.5001 82.2546 40.4134 80.5039 40.7635L76.2622 41.6119C75.6145 41.7411 75.0198 42.0595 74.5528 42.5265Z" fill="#B750B9"/>
<path id="Vector_13" d="M62.1159 18.6528L59.8945 21.6147C59.0786 22.7026 59.0026 24.1765 59.7022 25.3426L61.7576 28.7681C62.7401 30.4057 64.8921 30.8896 66.4811 29.8304L70.6547 27.0479C72.2526 25.9828 72.6273 23.794 71.4752 22.2579L69.2064 19.2327C68.7981 18.6884 68.2337 18.2815 67.5882 18.0665L65.8494 17.4867C64.4835 17.0311 62.9796 17.5009 62.1159 18.6528Z" fill="#B750B9"/>
<path id="Vector_14" d="M33.4932 71.4968L31.3092 74.2268C29.9071 75.9794 30.595 78.5882 32.679 79.422L35.6126 80.5954C36.4102 80.9145 37.2997 80.9145 38.0971 80.5954L41.3895 79.2784C43.362 78.4895 44.1089 76.0851 42.9305 74.3173L42.3649 73.4692C42.0419 72.9847 41.5984 72.5933 41.0778 72.3328L37.6013 70.5946C36.1901 69.8892 34.4784 70.2653 33.4932 71.4968Z" fill="#B750B9"/>
</g>
<g id="Group_3">
<path id="Vector_15" d="M26.6045 55.4948L22.7317 51.622C21.6465 50.5368 21.4389 48.852 22.2287 47.5361L24.6895 43.4346C24.8995 43.0849 25.1768 42.8009 25.4835 42.5569L24.0634 42.2731C22.6774 41.9959 21.2665 42.62 20.5392 43.8319L18.0784 47.9334C17.2887 49.2495 17.4962 50.9341 18.5814 52.0195L22.4542 55.8923C23.7608 57.1989 25.8407 57.1675 27.1308 55.9186C26.9459 55.796 26.7678 55.6583 26.6045 55.4948Z" fill="#A54B91"/>
<path id="Vector_16" d="M41.5372 24.9142L37.4194 23.5418C35.3896 22.8651 34.5079 20.4825 35.609 18.6477L37.5066 15.4849C37.603 15.3239 37.7305 15.1915 37.85 15.0517H37.0244C35.8496 15.0517 34.7608 15.6681 34.1563 16.6757L32.2587 19.8382C31.1576 21.6731 32.0389 24.0556 34.0691 24.7323L38.1869 26.1049C39.3888 26.5054 40.7138 26.1926 41.6097 25.2969L41.9214 24.9853C41.7933 24.9587 41.6634 24.9563 41.5372 24.9142Z" fill="#A54B91"/>
<path id="Vector_17" d="M55.1286 51.7442L49.3738 50.3055C47.1947 49.7606 46.161 47.2657 47.3169 45.3397L49.2502 42.1173C49.4804 41.7337 49.7862 41.4099 50.1388 41.1501L48.289 41.5201C47.365 41.7049 46.5615 42.2711 46.0767 43.0793L44.1434 46.3018C42.9877 48.2277 44.0213 50.7228 46.2002 51.2675L51.9551 52.7062C53.1674 53.0093 54.3799 52.5978 55.183 51.7523C55.1648 51.7478 55.1468 51.7487 55.1286 51.7442Z" fill="#A54B91"/>
<path id="Vector_18" d="M64.8818 28.4788L62.8265 25.0533C62.1268 23.8872 62.2028 22.4136 63.0188 21.3254L65.2401 18.3637C65.4834 18.0391 65.7853 17.7849 66.1127 17.574L65.8492 17.4863C64.4832 17.0311 62.9794 17.5009 62.1154 18.6526L59.8943 21.6143C59.0783 22.7023 59.0024 24.1761 59.702 25.3422L61.7574 28.7677C62.7367 30.3998 64.8769 30.8839 66.4642 29.8387C65.8282 29.574 65.2651 29.1174 64.8818 28.4788Z" fill="#A54B91"/>
<path id="Vector_19" d="M76.2486 49.9175C74.9423 48.6112 74.9423 46.4935 76.2486 45.1872L78.1846 43.2512C78.6514 42.7844 79.2461 42.4659 79.8939 42.3365L83.4641 41.6225C82.7002 40.8965 81.6095 40.542 80.5037 40.7633L76.262 41.6117C75.6145 41.7413 75.0198 42.0595 74.5528 42.5264L72.6168 44.4624C71.3107 45.7687 71.3107 47.8864 72.6168 49.1927L73.5642 50.1401C74.5193 51.0951 75.9402 51.3454 77.1762 50.8454L76.2486 49.9175Z" fill="#A54B91"/>
<path id="Vector_20" d="M59.2293 71.5763C57.4867 70.705 56.8545 68.5345 57.8571 66.8637L59.8734 63.5034C60.1379 63.0629 60.5117 62.7289 60.924 62.4581L59.0711 62.1935C57.7389 62.0031 56.4224 62.6298 55.7301 63.7837L53.7138 67.1443C52.7114 68.8151 53.3434 70.9856 55.086 71.8569L61.505 75.0664C62.7844 75.7062 64.2282 75.43 65.2075 74.5657L59.2293 71.5763Z" fill="#A54B91"/>
<path id="Vector_21" d="M38.9574 80.0363L36.0238 78.8629C33.94 78.0295 33.2521 75.4203 34.654 73.6677L36.838 70.9377C36.9767 70.7643 37.1324 70.6128 37.2969 70.4741C35.9506 69.9586 34.4092 70.3515 33.4932 71.4967L31.3092 74.2268C29.9071 75.9794 30.595 78.5882 32.679 79.4219L35.6126 80.5954C36.4102 80.9145 37.2997 80.9145 38.0971 80.5954L39.2674 80.1273C39.1638 80.0972 39.0582 80.0767 38.9574 80.0363Z" fill="#A54B91"/>
</g>
<path id="Vector_22" d="M13.3878 68.5673C13.1371 68.5673 12.8813 68.5102 12.6415 68.3909C11.8151 67.9777 11.4802 66.9734 11.8935 66.147L13.566 62.8022C13.9794 61.9758 14.9812 61.6443 15.8099 62.0542C16.6363 62.4676 16.9713 63.4717 16.5579 64.2981L14.8854 67.6429C14.5923 68.2291 14.002 68.5673 13.3878 68.5673Z" fill="#C950C4"/>
<path id="Vector_23" d="M43.4932 90.3102H41.8207C40.8971 90.3102 40.1482 89.5623 40.1482 88.6377C40.1482 87.7134 40.8971 86.9652 41.8207 86.9652H43.4932C44.4168 86.9652 45.1657 87.7132 45.1657 88.6377C45.1657 89.5623 44.4168 90.3102 43.4932 90.3102Z" fill="#914A92"/>
<path id="Vector_24" d="M36.8018 58.5344C36.5512 58.5344 36.2954 58.4774 36.0556 58.358C35.2292 57.9446 34.8942 56.9403 35.3076 56.1141L36.9801 52.7693C37.3925 51.9446 38.3945 51.6114 39.224 52.0214C40.0504 52.4348 40.3853 53.4389 39.9719 54.2653L38.2994 57.6101C38.0064 58.1964 37.4158 58.5344 36.8018 58.5344Z" fill="#C950C4"/>
<g id="Group_4">
<path id="Vector_25" d="M26.7675 31.7758C26.5168 31.7758 26.2611 31.7188 26.0212 31.5995L22.6764 29.927C21.85 29.5136 21.5151 28.5095 21.9284 27.6831C22.3409 26.8584 23.3437 26.5234 24.1723 26.9351L27.5171 28.6074C28.3435 29.0208 28.6785 30.0249 28.2651 30.8513C27.972 31.4377 27.3815 31.7758 26.7675 31.7758Z" fill="#914A92"/>
<path id="Vector_26" d="M46.8381 8.36189H43.4933C42.5697 8.36189 41.8208 7.61393 41.8208 6.6894C41.8208 5.76487 42.5697 5.01691 43.4933 5.01691H46.8381C47.7617 5.01691 48.5106 5.76487 48.5106 6.6894C48.5106 7.61393 47.7617 8.36189 46.8381 8.36189Z" fill="#914A92"/>
</g>
<path id="Vector_27" d="M53.5294 33.4481C52.9151 33.4481 52.3248 33.1102 52.0317 32.5238L50.3592 29.179C49.9458 28.3526 50.2808 27.3481 51.1072 26.9351C51.9353 26.5234 52.9388 26.8584 53.3511 27.6831L55.0236 31.0279C55.437 31.8543 55.102 32.8587 54.2756 33.2718C54.0354 33.3911 53.78 33.4481 53.5294 33.4481Z" fill="#C950C4"/>
<g id="Group_5">
<path id="Vector_28" d="M7.6323 41.6374C7.40742 41.5266 7.20337 41.3624 7.04063 41.1492C6.48175 40.4134 6.62554 39.3644 7.36157 38.8057L10.3401 36.5444C11.0754 35.9853 12.1237 36.1304 12.6837 36.8653C13.2426 37.6011 13.0988 38.6501 12.3628 39.2088L9.38436 41.47C8.86204 41.8663 8.18304 41.9087 7.6323 41.6374Z" fill="#914A92"/>
<path id="Vector_29" d="M70.2518 60.2069C69.8239 60.2069 69.3959 60.0436 69.0695 59.7169L65.7247 56.3721C65.0714 55.7189 65.0714 54.6604 65.7247 54.0072C66.3779 53.354 67.4364 53.354 68.0896 54.0072L71.4344 57.352C72.0876 58.0052 72.0876 59.0637 71.4344 59.7169C71.1076 60.0436 70.6796 60.2069 70.2518 60.2069Z" fill="#914A92"/>
</g>
<path id="Vector_30" d="M73.5966 76.931C73.1686 76.931 72.7407 76.7677 72.4142 76.4411C71.761 75.7879 71.761 74.7294 72.4142 74.0762L74.0867 72.4037C74.74 71.7504 75.7984 71.7504 76.4517 72.4037C77.1049 73.0569 77.1049 74.1154 76.4517 74.7686L74.7792 76.4411C74.4524 76.7677 74.0246 76.931 73.5966 76.931Z" fill="#C950C4"/>
</g>
<g id="Crumbs">
<g id="Group_6">
<path id="Vector_31" d="M76.9414 6.68958V10.9091C76.9414 12.0924 78.1363 12.9014 79.2349 12.4618L84.2522 10.455C84.8871 10.2009 85.3035 9.58594 85.3035 8.9022V6.68958C85.3035 5.766 84.5546 5.01709 83.631 5.01709H78.6137C77.6903 5.01709 76.9414 5.766 76.9414 6.68958Z" fill="#FFA1EA"/>
<path id="Vector_32" d="M80.5169 19.8744L79.4497 27.3453C79.1987 29.1026 80.3644 30.7501 82.1049 31.0981L85.1678 31.7106C86.497 31.9766 87.855 31.414 88.607 30.2861L89.7588 28.5583C90.3554 27.6632 90.4854 26.5357 90.1076 25.5286L86.6185 16.2244C86.1844 15.0672 84.7001 14.7457 83.8261 15.6196L81.4632 17.9823C80.9513 18.494 80.6194 19.158 80.5169 19.8744Z" fill="#FFA1EA"/>
</g>
<g id="Group_7">
<path id="Vector_33" d="M88.9014 28.7398L85.8385 28.1273C84.0978 27.7791 82.9323 26.1316 83.1834 24.3745L84.2505 16.9038C84.3458 16.2375 84.6565 15.6289 85.1086 15.1337C84.6546 15.1108 84.1886 15.2568 83.8262 15.6191L81.4631 17.9819C80.9514 18.4936 80.6193 19.1577 80.5172 19.874L79.45 27.3447C79.199 29.1023 80.3647 30.7496 82.1052 31.0976L85.1681 31.7101C86.4971 31.9757 87.8553 31.4134 88.6072 30.2856L89.6149 28.7741C89.3777 28.7789 89.1403 28.7878 88.9014 28.7398Z" fill="#FF96F4"/>
<path id="Vector_34" d="M82.5798 9.11686C81.4812 9.5562 80.2863 8.74723 80.2863 7.5641V5.01709H78.6138C77.6902 5.01709 76.9413 5.766 76.9413 6.68958V10.9091C76.9413 12.0924 78.1362 12.9014 79.2348 12.4618L84.2521 10.455C84.887 10.2009 85.3034 9.58613 85.3034 8.9022V8.0275L82.5798 9.11686Z" fill="#FF96F4"/>
<path id="Vector_35" d="M89.4822 36.4741L88.4936 38.4512C88.2583 38.922 88.2583 39.4761 88.4936 39.9469L88.9447 40.8495C89.3946 41.7492 90.5312 42.0512 91.3682 41.4933L94.0643 39.6959C94.5296 39.3856 94.809 38.8635 94.809 38.3044V36.5025C94.809 35.361 93.6907 34.5549 92.6078 34.916L90.449 35.6356C90.0284 35.7756 89.6805 36.0772 89.4822 36.4741Z" fill="#FF96F4"/>
</g>
</g>
</g>
<defs>
<clipPath id="clip0_2_7">
<rect width="97" height="97" fill="white"/>
</clipPath>
</defs>
</svg>
